<svg xmlns="http://www.w3.org/2000/svg" viewBox="0 0 245.92 95.43"><defs><style>.cls-1{fill:#fff;}</style></defs><g id="Layer_2" data-name="Layer 2"><g id="Layer_1-2" data-name="Layer 1"><path class="cls-1" d="M12.49,47.49a.4.4,0,0,1-.05-.68A3.93,3.93,0,0,0,14.1,44.4a5.45,5.45,0,0,0-2.45-5.7,11.32,11.32,0,0,0-5.86-1.33H.42a.42.42,0,0,0-.42.42V57.64a.42.42,0,0,0,.42.42H5.55a16,16,0,0,0,5.65-.83,5.84,5.84,0,0,0,3.88-5.41A5,5,0,0,0,12.49,47.49ZM4.84,41.3h.68a6,6,0,0,1,3.09.48,2,2,0,0,1,.74,1.71c0,1.42-1.35,2.13-3.56,2.13h-1ZM8.93,53.72a8.13,8.13,0,0,1-3.26.41H4.84V49.82a.42.42,0,0,1,.42-.42H7.08c1.88,0,2.87,1,2.87,2.51A1.84,1.84,0,0,1,8.93,53.72ZM30.17,37.37H18.89a.42.42,0,0,0-.43.42V57.64a.42.42,0,0,0,.43.42H30.17a.42.42,0,0,0,.42-.42V54.52a.42.42,0,0,0-.42-.42H23.72a.42.42,0,0,1-.42-.42V49.82a.42.42,0,0,1,.42-.42h5.92a.42.42,0,0,0,.43-.42V45.86a.42.42,0,0,0-.43-.42H23.72A.42.42,0,0,1,23.3,45V41.75a.42.42,0,0,1,.42-.42h6.45a.42.42,0,0,0,.42-.42V37.79A.42.42,0,0,0,30.17,37.37ZM45.39,49.84a.41.41,0,0,1,.18-.61,6,6,0,0,0,3.85-5.56c0-4.56-4.38-6.3-7.82-6.3H35.22a.42.42,0,0,0-.43.42V57.64a.42.42,0,0,0,.43.42h4a.42.42,0,0,0,.42-.42V50h.21l5.4,7.89a.44.44,0,0,0,.35.18h5a.42.42,0,0,0,.35-.66C49.46,55.44,47.05,52.12,45.39,49.84ZM40.91,46H39.63V41.75a.42.42,0,0,1,.42-.42h1.43c1.67,0,2.81,1,2.81,2.43S42.86,46,40.91,46ZM96,41.33h6.45a.42.42,0,0,0,.42-.42V37.79a.42.42,0,0,0-.42-.42H91.19a.42.42,0,0,0-.42.42V57.64a.42.42,0,0,0,.42.42h11.28a.42.42,0,0,0,.42-.42V54.52a.42.42,0,0,0-.42-.42H96a.42.42,0,0,1-.42-.42V49.82A.42.42,0,0,1,96,49.4H102a.42.42,0,0,0,.42-.42V45.86a.42.42,0,0,0-.42-.42H96A.42.42,0,0,1,95.6,45V41.75A.42.42,0,0,1,96,41.33ZM70.07,30.74A16.88,16.88,0,0,0,52.92,47.3,17.25,17.25,0,0,0,70.49,64.69a17,17,0,0,0-.42-33.95Zm0,28.58a11.48,11.48,0,0,1-11.65-13.2c.6-5,5.45-9.57,10.53-10,7.35-.57,12.81,4.47,12.81,11.56A11.27,11.27,0,0,1,70.09,59.32Z"/><path class="cls-1" d="M207.08,45.74a2,2,0,0,1,1.41.58,1.92,1.92,0,0,1,.58,1.41,1.88,1.88,0,0,1-.58,1.38,2,2,0,0,1-2.81,0,1.88,1.88,0,0,1-.58-1.38,1.92,1.92,0,0,1,.58-1.41,2,2,0,0,1,1.4-.58"/><path class="cls-1" d="M161.57,95.43a47.72,47.72,0,1,1,46.65-57.82,2.2,2.2,0,1,1-4.31.93,43.3,43.3,0,1,0,0,18.36,2.2,2.2,0,1,1,4.31.93A48,48,0,0,1,161.57,95.43Z"/><path class="cls-1" d="M225.28,37.05h4.29l8.61,22.33h-4.41L232,54.78h-9.12l-1.83,4.6h-4.42ZM227.45,43l-2.95,7.65h5.91Z"/><path class="cls-1" d="M245.92,38.79a2.64,2.64,0,0,1-2.64,2.64,2.75,2.75,0,0,1-2.64-2.86,2.58,2.58,0,0,1,2.64-2.52A2.69,2.69,0,0,1,245.92,38.79Zm-4.69,4.07h4.13V59.38h-4.13Z"/><path class="cls-1" d="M132.83,37.05h4.26V55.34h6.19v4H132.83Z"/><path class="cls-1" d="M151,38.79a2.64,2.64,0,0,1-2.65,2.64,2.75,2.75,0,0,1-2.64-2.86,2.58,2.58,0,0,1,2.64-2.52A2.69,2.69,0,0,1,151,38.79Zm-4.7,4.07h4.14V59.38h-4.14Z"/><path class="cls-1" d="M153.51,37.05h4.38l5.6,15.86,5.72-15.86h4.36l-8.06,22.33h-4.07Z"/><path class="cls-1" d="M177.64,37.05h12.19v4.17H181.9v4h7.93v4.16H181.9v5.85h7.93v4.17H177.64Z"/><path class="cls-1" d="M148.22,36.11a2.64,2.64,0,0,1,1.93.8,2.66,2.66,0,0,1,0,3.8,2.63,2.63,0,0,1-1.93.79,2.7,2.7,0,0,1,0-5.39"/><path class="cls-1" d="M207.07,44.72a2.94,2.94,0,0,1,2.14.88,2.91,2.91,0,0,1,.89,2.13,2.87,2.87,0,0,1-.89,2.1,2.91,2.91,0,0,1-2.14.88,3,3,0,0,1-3-3,3,3,0,0,1,3-3"/></g></g></svg>