<svg width="37" height="38" viewBox="0 0 37 38" fill="none" xmlns="http://www.w3.org/2000/svg">
<path d="M34.587 21.0027H2.41304L0 17.7853L3.21739 14.5679H33.7826L37 17.7853L34.587 21.0027Z" fill="#0E512B"/>
<path d="M32.1738 37.0898H4.82598C3.93718 37.0898 3.21729 36.37 3.21729 35.4811V1.69854C3.21729 0.809735 3.93718 0.0898438 4.82598 0.0898438H24.1303L33.7825 9.74202V35.4811C33.7825 36.37 33.0626 37.0898 32.1738 37.0898Z" fill="#E6E6E6"/>
<path d="M24.1304 0.0898438V8.13332C24.1304 9.02213 24.8503 9.74202 25.7391 9.74202H33.7825L24.1304 0.0898438Z" fill="#B3B3B3"/>
<path d="M35.3913 32.2634H1.6087C0.719891 32.2634 0 31.5435 0 30.6547V17.7852H37V30.6547C37 31.5435 36.2801 32.2634 35.3913 32.2634Z" fill="#1B7343"/>
<path d="M13.5016 23.235C13.0954 23.235 12.7785 23.4007 12.5509 23.7337C12.3233 24.0659 12.2098 24.5244 12.2098 25.1091C12.2098 26.3253 12.6723 26.9334 13.5965 26.9334C13.8757 26.9334 14.1467 26.894 14.4089 26.816C14.6712 26.738 14.9342 26.6446 15.1996 26.5353V27.9775C14.6728 28.2115 14.0767 28.3281 13.4107 28.3281C12.4576 28.3281 11.7264 28.0514 11.2181 27.4989C10.7097 26.9455 10.4556 26.146 10.4556 25.1019C10.4556 24.448 10.5786 23.8737 10.8248 23.3774C11.0717 22.8819 11.4256 22.5006 11.8873 22.2344C12.3498 21.9682 12.8935 21.8354 13.5185 21.8354C14.2014 21.8354 14.8537 21.9834 15.4755 22.2803L14.9527 23.6235C14.7194 23.5141 14.4862 23.4224 14.2529 23.3468C14.0196 23.272 13.7695 23.235 13.5016 23.235Z" fill="white"/>
<path d="M20.5611 26.3237C20.5611 26.7154 20.4614 27.0629 20.2627 27.3669C20.064 27.671 19.7769 27.9075 19.4029 28.0756C19.0288 28.2445 18.5889 28.3281 18.0853 28.3281C17.6647 28.3281 17.3124 28.2984 17.0268 28.2397C16.7413 28.181 16.4453 28.078 16.1372 27.9308V26.4098C16.463 26.5771 16.8008 26.7074 17.1523 26.8007C17.5038 26.894 17.8263 26.9406 18.1199 26.9406C18.3733 26.9406 18.5591 26.8972 18.6773 26.8095C18.7956 26.7219 18.8543 26.6085 18.8543 26.4701C18.8543 26.384 18.8302 26.3084 18.7835 26.2433C18.7352 26.1789 18.6596 26.113 18.5543 26.047C18.4497 25.9811 18.169 25.8451 17.7145 25.6408C17.3027 25.4542 16.9938 25.2724 16.7879 25.0963C16.582 24.9201 16.4292 24.719 16.3303 24.4914C16.2305 24.2638 16.1806 23.9951 16.1806 23.6838C16.1806 23.1015 16.3922 22.6478 16.8161 22.3229C17.24 21.9979 17.8215 21.8354 18.5615 21.8354C19.2154 21.8354 19.8823 21.9867 20.5619 22.2883L20.0391 23.6058C19.4487 23.3356 18.9387 23.2004 18.51 23.2004C18.288 23.2004 18.1272 23.239 18.0258 23.3171C17.9245 23.3951 17.8746 23.4916 17.8746 23.6058C17.8746 23.7297 17.9389 23.8407 18.0668 23.9388C18.1947 24.0369 18.5422 24.2155 19.1101 24.4745C19.6546 24.7198 20.0319 24.9821 20.2442 25.2628C20.4549 25.5443 20.5611 25.8974 20.5611 26.3237Z" fill="white"/>
<path d="M25.0846 21.9253H26.9941L24.9245 28.2418H22.9152L20.8545 21.9253H22.7729L23.6327 25.1258C23.8113 25.8376 23.9094 26.3331 23.9263 26.6122C23.9464 26.4111 23.9866 26.1594 24.0469 25.8569C24.1073 25.5545 24.1612 25.3164 24.207 25.1435L25.0846 21.9253Z" fill="white"/>
</svg>
