<svg width="36" height="37" viewBox="0 0 36 37" fill="none" xmlns="http://www.w3.org/2000/svg">
<path d="M33.6522 20.4376H2.34783L0 17.3072L3.13043 14.1768H32.8696L36 17.3072L33.6522 20.4376Z" fill="#12376B"/>
<path d="M31.3043 36.0898H4.69559C3.83081 36.0898 3.13037 35.3894 3.13037 34.5246V1.65506C3.13037 0.790278 3.83081 0.0898438 4.69559 0.0898438H23.4782L32.8695 9.48115V34.5246C32.8695 35.3894 32.1691 36.0898 31.3043 36.0898Z" fill="#E6E6E6"/>
<path d="M23.4785 0.0898438V7.91593C23.4785 8.78071 24.179 9.48115 25.0437 9.48115H32.8698L23.4785 0.0898438Z" fill="#B3B3B3"/>
<path d="M34.4348 31.3941H1.56522C0.700435 31.3941 0 30.6937 0 29.8289V17.3071H36V29.8289C36 30.6937 35.2996 31.3941 34.4348 31.3941Z" fill="#27549B"/>
<path d="M14.4978 24.2776C14.4978 25.3036 14.2161 26.0932 13.651 26.6481C13.0876 27.2037 12.2932 27.4808 11.2696 27.4808H9.28174V21.335H11.4089C12.395 21.335 13.1564 21.587 13.6933 22.0917C14.231 22.5965 14.4978 23.3244 14.4978 24.2776ZM12.7753 24.3363C12.7753 23.7728 12.6634 23.3557 12.4403 23.0833C12.2181 22.811 11.8792 22.6756 11.4253 22.6756H10.9424V26.1175H11.3126C11.8174 26.1175 12.1868 25.9704 12.4223 25.6777C12.6579 25.385 12.7753 24.9389 12.7753 24.3363Z" fill="white"/>
<path d="M21.3504 24.3992C21.3504 25.4338 21.0969 26.2196 20.5889 26.758C20.081 27.2965 19.3383 27.5649 18.3609 27.5649C17.3975 27.5649 16.6571 27.2941 16.1437 26.7533C15.6295 26.2133 15.3721 25.4252 15.3721 24.3914C15.3721 23.3678 15.628 22.5867 16.139 22.0475C16.6509 21.5083 17.3943 21.2383 18.3695 21.2383C19.3477 21.2383 20.0889 21.5067 20.5936 22.0412C21.0984 22.5758 21.3504 23.3631 21.3504 24.3992ZM17.1212 24.3992C17.1212 25.588 17.5352 26.1812 18.3616 26.1812C18.7819 26.1812 19.0942 26.0372 19.2961 25.7485C19.4995 25.4597 19.6021 25.0105 19.6021 24.3985C19.6021 23.7857 19.498 23.3318 19.2929 23.0391C19.0863 22.7464 18.7795 22.5992 18.3695 22.5992C17.5375 22.6008 17.1212 23.2003 17.1212 24.3992Z" fill="white"/>
<path d="M25.196 22.6093C24.8007 22.6093 24.4932 22.7705 24.2709 23.0945C24.0494 23.4177 23.9391 23.8638 23.9391 24.4328C23.9391 25.6161 24.3883 26.2077 25.2883 26.2077C25.5599 26.2077 25.8244 26.1694 26.0788 26.0935C26.3331 26.0176 26.5898 25.9268 26.8481 25.8203V27.2236C26.3347 27.4513 25.7555 27.5648 25.1068 27.5648C24.1794 27.5648 23.468 27.2956 22.9741 26.7579C22.4788 26.2195 22.2314 25.4416 22.2314 24.4257C22.2314 23.7895 22.352 23.2307 22.5907 22.7478C22.8309 22.2657 23.1761 21.8948 23.6253 21.6357C24.0745 21.3767 24.6035 21.2476 25.2116 21.2476C25.8761 21.2476 26.5107 21.3916 27.1165 21.6803L26.6086 22.9873C26.3816 22.8809 26.1547 22.7916 25.9277 22.7181C25.7008 22.6453 25.4566 22.6093 25.196 22.6093Z" fill="white"/>
</svg>
