<svg width="36" height="37" viewBox="0 0 36 37" fill="none" xmlns="http://www.w3.org/2000/svg">
<path d="M33.6522 20.4376H2.34783L0 17.3072L3.13043 14.1768H32.8696L36 17.3072L33.6522 20.4376Z" fill="#AA3111"/>
<path d="M31.3043 36.0898H4.69559C3.83081 36.0898 3.13037 35.3894 3.13037 34.5246V1.65506C3.13037 0.790278 3.83081 0.0898438 4.69559 0.0898438H23.4782L32.8695 9.48115V34.5246C32.8695 35.3894 32.1691 36.0898 31.3043 36.0898Z" fill="#E6E6E6"/>
<path d="M23.4785 0.0898438V7.91593C23.4785 8.78071 24.179 9.48115 25.0437 9.48115H32.8698L23.4785 0.0898438Z" fill="#B3B3B3"/>
<path d="M34.4348 31.3941H1.56522C0.700435 31.3941 0 30.6937 0 29.8289V17.3071H36V29.8289C36 30.6937 35.2996 31.3941 34.4348 31.3941Z" fill="#D44519"/>
<path d="M12.0294 23.2899C12.0294 23.977 11.8267 24.5077 11.4221 24.881C11.0167 25.2558 10.4423 25.4421 9.69647 25.4421H9.23003V27.4808H7.56934V21.335H9.69647C10.4728 21.335 11.0559 21.5048 11.4448 21.8429C11.8346 22.1825 12.0294 22.6654 12.0294 23.2899ZM9.22925 24.089H9.53212C9.78177 24.089 9.97977 24.0185 10.1269 23.8777C10.274 23.7376 10.3476 23.5443 10.3476 23.2985C10.3476 22.8837 10.1183 22.6764 9.65812 22.6764H9.22925V24.089Z" fill="white"/>
<path d="M17.4684 23.2899C17.4684 23.977 17.2657 24.5077 16.8611 24.881C16.4557 25.2558 15.8813 25.4421 15.1354 25.4421H14.669V27.4808H13.0083V21.335H15.1354C15.9118 21.335 16.4948 21.5048 16.8838 21.8429C17.2735 22.1825 17.4684 22.6654 17.4684 23.2899ZM14.669 24.089H14.9719C15.2215 24.089 15.4195 24.0185 15.5666 23.8777C15.7138 23.7376 15.7873 23.5443 15.7873 23.2985C15.7873 22.8837 15.558 22.6764 15.0979 22.6764H14.669V24.089Z" fill="white"/>
<path d="M21.1595 27.481H19.4988V22.6938H17.9985V21.3359H22.6558V22.6938H21.1595V27.481Z" fill="white"/>
<path d="M29.0701 27.4808H27.1488L25.9506 25.5595L24.7658 27.4808H22.8867L24.9254 24.3363L23.0088 21.335H24.8503L25.96 23.2351L27.0275 21.335H28.923L26.9766 24.4662L29.0701 27.4808Z" fill="white"/>
</svg>
