<svg width="14" height="15" viewBox="0 0 14 15" fill="none" xmlns="http://www.w3.org/2000/svg">
<path d="M6.125 7.52734C8.12831 7.52734 9.625 5.44878 9.625 3.58984C9.625 2.66159 9.25625 1.77135 8.59987 1.11497C7.9435 0.458593 7.05326 0.0898438 6.125 0.0898438C5.19674 0.0898438 4.3065 0.458593 3.65013 1.11497C2.99375 1.77135 2.625 2.66159 2.625 3.58984C2.625 5.44878 4.12169 7.52734 6.125 7.52734Z" fill="#9CA3AF"/>
<path d="M7 11.027C6.9986 10.1027 7.32402 9.20761 7.91875 8.50002C7.32311 8.4342 6.72427 8.40148 6.125 8.40202C4.38233 8.355 2.64904 8.67224 1.036 9.33346C0.727358 9.47138 0.465272 9.69576 0.281421 9.97945C0.0975703 10.2631 -0.000174884 10.594 2.34894e-07 10.9321V13.2145C2.34894e-07 13.3306 0.0460939 13.4418 0.128141 13.5239C0.210188 13.6059 0.321468 13.652 0.4375 13.652H8.00844C7.35904 12.932 6.99973 11.9967 7 11.027V11.027Z" fill="#9CA3AF"/>
<path d="M10.9375 7.96484C11.5432 7.96484 12.1353 8.14446 12.6389 8.48097C13.1426 8.81748 13.5351 9.29578 13.7669 9.85538C13.9987 10.415 14.0593 11.0307 13.9412 11.6248C13.823 12.2189 13.5313 12.7646 13.103 13.1929C12.6747 13.6212 12.129 13.9128 11.535 14.031C10.9409 14.1492 10.3251 14.0885 9.76553 13.8567C9.20593 13.6249 8.72764 13.2324 8.39112 12.7288C8.05461 12.2252 7.875 11.633 7.875 11.0273C7.875 10.2151 8.19766 9.43616 8.77199 8.86183C9.34632 8.2875 10.1253 7.96484 10.9375 7.96484V7.96484ZM10.9375 12.7773V11.4648H12.6875V10.5898H10.9375V9.27734L8.75 11.0273L10.9375 12.7773Z" fill="#9CA3AF"/>
</svg>